<svg width="390" height="144" viewBox="0 0 390 144" fill="none" xmlns="http://www.w3.org/2000/svg">
<rect width="390" height="144" fill="white"/>
<path d="M84.5312 96.5866L87.2021 93.5981C88.6712 91.9542 90.0646 90.6081 90.2991 90.6067C90.6482 90.6043 97.4442 96.9738 97.7321 97.5734C97.7798 97.672 96.4479 99.1584 94.7726 100.876L91.7266 104L88.1288 100.294L84.5312 96.5866Z" fill="#006564"/>
<path fill-rule="evenodd" clip-rule="evenodd" d="M84.8662 40.5917C84.4688 41.0446 83.8862 41.481 82.9051 41.9844L81.1214 42.9002L64.1915 42.9597C54.8707 42.9597 45.0971 42.9597 42.5624 42.9597H38V65.5176C38.0997 77.6964 38 89.4438 38 89.4438V91.2945H42.1602C45.1029 91.2906 46.6179 91.2945 47.1207 91.2945C47.1207 91.2945 47.1207 89.8648 47.1207 88.8982C47.1207 87.9845 47.1248 86.8323 47.1248 86.8323C47.1248 86.8323 48.1156 85.9138 49.2329 84.7755L51.3452 82.6244H56.0806H60.9809V92.7517C60.9809 98.3228 60.9444 102.829 60.9809 102.849C61.0174 102.87 64.6984 102.849 68.3274 102.863L75.513 102.849V95.189C75.513 90.777 75.513 87.5287 75.513 87.5287C75.656 87.5287 77.1301 88.9577 78.8885 90.777C80.6469 92.5964 82.2444 94.0849 82.4384 94.0849C82.8872 94.0849 88.0133 88.7895 88.0133 88.3257C88.0133 88.1349 86.4164 86.3393 84.4648 84.3354C82.5131 82.3315 80.9162 80.5746 80.9162 80.4311C80.9162 80.2876 84.4648 80.2681 88.6932 80.2166H96.8042V72.9045V65.5924H86.3276H76.5269L76.4681 60.4841L76.5823 55.2611L78.2596 53.4913C79.7361 51.9331 80.1842 51.674 82.0061 51.3248C84.529 50.8415 88.4533 48.9692 90.138 47.4452L91.3824 46.3195L88.6054 43.2171C86.972 41.3921 85.3137 40 85.3137 40C85.3137 40 85.2637 40.1387 84.8662 40.5917ZM47.1248 72.9045C47.1248 72.9045 66.6637 52.3885 66.7262 52.3609C66.7887 52.3334 65.8813 52.3609 64.8674 52.3609C63.8536 52.3609 59.2192 52.3059 54.8977 52.3609C48.9835 52.3609 47.1248 52.3609 47.1248 52.3609C47.1248 53.2314 47.1248 72.7304 47.1248 72.9045ZM67.5856 79.515L74.1571 86.185V93.9171V101.805H68.4159C65.2054 101.805 61.9948 101.805 61.9948 101.805C61.9948 101.805 62.0837 97.118 61.9907 91.5319V81.2612H57.4324C55.0657 81.2483 52.87 81.2612 52.87 81.2612C52.87 81.2612 60.011 72.8496 60.573 72.8471C60.8157 72.8461 63.9715 75.8464 67.5856 79.515ZM75.1129 66.9257L75.175 62.1104C75.175 59.3249 75.175 57.2357 75.175 57.2357C74.8107 57.1107 66.7221 65.644 66.7221 66.1604C66.7221 66.3432 69.5417 69.3321 72.9878 72.8025L79.2532 79.1125H87.3509H95.4483V73.0191V66.9257H85.2806H75.1129Z" fill="#006564"/>
<path d="M343.884 92.65C342.722 92.65 341.552 92.572 340.374 92.416C339.195 92.2773 338.06 92.078 336.968 91.818C335.876 91.558 334.87 91.272 333.952 90.96C333.033 90.648 332.262 90.3187 331.638 89.972L332.106 83.602C332.99 84.07 333.882 84.4947 334.784 84.876C335.702 85.2573 336.621 85.578 337.54 85.838C338.458 86.098 339.368 86.2973 340.27 86.436C341.171 86.5747 342.055 86.644 342.922 86.644C344.707 86.644 346.128 86.4013 347.186 85.916C348.243 85.4307 348.997 84.772 349.448 83.94C349.916 83.0907 350.15 82.1547 350.15 81.132C350.15 79.26 349.482 77.9427 348.148 77.18C346.813 76.4173 344.854 76.036 342.272 76.036C341.422 76.036 340.651 76.036 339.958 76.036C339.282 76.036 338.597 76.036 337.904 76.036V70.55C338.441 70.55 339.004 70.55 339.594 70.55C340.183 70.55 340.876 70.55 341.674 70.55C343.476 70.55 344.932 70.2987 346.042 69.796C347.151 69.2933 347.966 68.6347 348.486 67.82C349.023 67.0053 349.292 66.13 349.292 65.194C349.292 64.0327 348.988 63.088 348.382 62.36C347.775 61.6147 346.96 61.0773 345.938 60.748C344.915 60.4013 343.78 60.228 342.532 60.228C341.769 60.228 340.98 60.2973 340.166 60.436C339.368 60.5573 338.545 60.7653 337.696 61.06C336.846 61.3547 335.971 61.736 335.07 62.204C334.168 62.6547 333.25 63.218 332.314 63.894L331.43 57.368C332.14 56.952 332.929 56.5533 333.796 56.172C334.662 55.7907 335.607 55.4527 336.63 55.158C337.652 54.846 338.727 54.612 339.854 54.456C340.998 54.2826 342.185 54.196 343.416 54.196C346.293 54.196 348.72 54.586 350.696 55.366C352.672 56.1287 354.171 57.212 355.194 58.616C356.234 60.0027 356.754 61.6407 356.754 63.53C356.754 65.8873 356.104 67.7853 354.804 69.224C353.504 70.6453 351.9 71.6247 349.994 72.162V72.734C351.346 72.994 352.602 73.462 353.764 74.138C354.925 74.7967 355.861 75.7413 356.572 76.972C357.3 78.1853 357.664 79.7887 357.664 81.782C357.664 83.706 357.23 85.5 356.364 87.164C355.497 88.8107 354.05 90.1366 352.022 91.142C350.011 92.1473 347.298 92.65 343.884 92.65Z" fill="#373737"/>
<path d="M295.084 92C295.084 89.9893 295.084 88.0393 295.084 86.15C295.084 84.2607 295.084 82.1633 295.084 79.858V67.326C295.084 64.9513 295.084 62.802 295.084 60.878C295.084 58.954 295.084 56.9693 295.084 54.924H302.208C302.208 56.9693 302.208 58.9627 302.208 60.904C302.208 62.828 302.208 64.986 302.208 67.378V79.832H302.728L309.41 70.134C311.091 67.7073 312.79 65.246 314.506 62.75C316.239 60.254 318.042 57.6453 319.914 54.924H326.102C326.102 56.9693 326.102 58.954 326.102 60.878C326.102 62.802 326.102 64.9513 326.102 67.326V79.858C326.102 82.1633 326.102 84.2607 326.102 86.15C326.102 88.0393 326.102 89.9893 326.102 92H318.978C318.978 89.972 318.978 88.0133 318.978 86.124C318.978 84.2347 318.978 82.1373 318.978 79.832V67.066H318.484L311.75 76.764C309.705 79.7107 307.824 82.4147 306.108 84.876C304.409 87.3373 302.78 89.712 301.22 92H295.084ZM310.45 51.648C308.11 51.648 306.16 51.2753 304.6 50.53C303.057 49.7847 301.905 48.7273 301.142 47.358C300.379 45.9887 299.989 44.3767 299.972 42.522L305.276 42.314C305.276 43.9433 305.709 45.2347 306.576 46.188C307.443 47.1413 308.734 47.618 310.45 47.618C312.218 47.618 313.527 47.1587 314.376 46.24C315.225 45.304 315.65 44.0647 315.65 42.522H320.954C320.954 44.3767 320.573 45.9887 319.81 47.358C319.065 48.7273 317.912 49.7847 316.352 50.53C314.809 51.2753 312.842 51.648 310.45 51.648Z" fill="#373737"/>
<path d="M256.475 92C257.151 90.0067 257.861 87.9093 258.607 85.708C259.352 83.5067 260.054 81.418 260.713 79.442L265.029 66.728C265.809 64.4227 266.511 62.3513 267.135 60.514C267.776 58.6593 268.409 56.796 269.033 54.924H278.445C279.086 56.8653 279.719 58.7547 280.343 60.592C280.967 62.4293 281.66 64.4747 282.423 66.728L286.687 79.468C287.38 81.5133 288.091 83.6193 288.819 85.786C289.547 87.9527 290.24 90.024 290.899 92H283.385C282.761 89.972 282.119 87.8833 281.461 85.734C280.802 83.5847 280.178 81.5567 279.589 79.65L273.947 61.19H273.375L267.681 79.442C267.057 81.4353 266.407 83.524 265.731 85.708C265.072 87.8747 264.422 89.972 263.781 92H256.475ZM264.717 83.732L265.445 78.22H282.761L283.359 83.732H264.717Z" fill="#373737"/>
<path d="M229.777 92C229.777 89.9893 229.777 88.0394 229.777 86.15C229.777 84.2607 229.777 82.1634 229.777 79.858V67.3C229.777 64.9427 229.777 62.802 229.777 60.878C229.777 58.954 229.777 56.9693 229.777 54.924C231.251 54.924 233.201 54.924 235.627 54.924C238.071 54.924 240.879 54.924 244.051 54.924C246.998 54.924 249.451 55.2967 251.409 56.042C253.368 56.7873 254.841 57.992 255.829 59.656C256.817 61.3027 257.311 63.504 257.311 66.26C257.311 68.6347 256.878 70.7407 256.011 72.578C255.145 74.398 253.741 75.828 251.799 76.868C249.858 77.8907 247.249 78.402 243.973 78.402C243.141 78.402 242.231 78.402 241.243 78.402C240.273 78.402 239.319 78.402 238.383 78.402C237.465 78.402 236.676 78.402 236.017 78.402V72.656H242.387C244.121 72.656 245.542 72.4393 246.651 72.006C247.761 71.5727 248.575 70.8967 249.095 69.978C249.633 69.042 249.901 67.8287 249.901 66.338C249.901 65.1247 249.711 64.154 249.329 63.426C248.948 62.6807 248.445 62.1173 247.821 61.736C247.197 61.3547 246.513 61.0947 245.767 60.956C245.022 60.8173 244.285 60.748 243.557 60.748H233.443L236.953 56.042C236.953 58.0873 236.953 60.0807 236.953 62.022C236.953 63.946 236.953 66.0867 236.953 68.444V79.858C236.953 82.1634 236.953 84.2607 236.953 86.15C236.953 88.0394 236.953 89.9893 236.953 92H229.777Z" fill="#373737"/>
<path d="M205.757 92.65C202.481 92.65 199.63 92.1387 197.203 91.116C194.794 90.0933 192.8 88.6893 191.223 86.904C189.663 85.1187 188.493 83.0733 187.713 80.768C186.95 78.4627 186.569 76.0273 186.569 73.462C186.569 69.874 187.288 66.624 188.727 63.712C190.166 60.7827 192.289 58.4687 195.097 56.77C197.922 55.054 201.406 54.196 205.549 54.196C208.704 54.196 211.468 54.69 213.843 55.678C216.218 56.666 218.202 58.044 219.797 59.812C221.392 61.58 222.588 63.6253 223.385 65.948C224.182 68.2707 224.581 70.7667 224.581 73.436C224.581 77.1107 223.853 80.3953 222.397 83.29C220.941 86.1847 218.809 88.4727 216.001 90.154C213.193 91.818 209.778 92.65 205.757 92.65ZM205.627 86.592C207.568 86.592 209.25 86.2453 210.671 85.552C212.092 84.8413 213.271 83.8707 214.207 82.64C215.16 81.392 215.862 79.9793 216.313 78.402C216.781 76.8247 217.015 75.1693 217.015 73.436C217.015 71.5813 216.764 69.8567 216.261 68.262C215.758 66.6673 215.022 65.272 214.051 64.076C213.098 62.8627 211.91 61.9267 210.489 61.268C209.085 60.592 207.464 60.254 205.627 60.254C203.738 60.254 202.074 60.6007 200.635 61.294C199.196 61.9873 197.992 62.9493 197.021 64.18C196.068 65.4107 195.348 66.8233 194.863 68.418C194.378 69.9953 194.135 71.668 194.135 73.436C194.135 75.204 194.369 76.8767 194.837 78.454C195.305 80.0313 196.016 81.4353 196.969 82.666C197.922 83.8967 199.118 84.8587 200.557 85.552C201.996 86.2453 203.686 86.592 205.627 86.592Z" fill="#373737"/>
<path d="M150.353 92C150.353 89.9893 150.353 88.0394 150.353 86.15C150.353 84.2607 150.353 82.1634 150.353 79.858V67.326C150.353 64.9513 150.353 62.802 150.353 60.878C150.353 58.954 150.353 56.9693 150.353 54.924H157.477C157.477 56.9693 157.477 58.9627 157.477 60.904C157.477 62.828 157.477 64.986 157.477 67.378V79.832H157.997L164.679 70.134C166.361 67.7073 168.059 65.246 169.775 62.75C171.509 60.254 173.311 57.6453 175.183 54.924H181.371C181.371 56.9693 181.371 58.954 181.371 60.878C181.371 62.802 181.371 64.9513 181.371 67.326V79.858C181.371 82.1634 181.371 84.2607 181.371 86.15C181.371 88.0394 181.371 89.9893 181.371 92H174.247C174.247 89.972 174.247 88.0133 174.247 86.124C174.247 84.2347 174.247 82.1373 174.247 79.832V67.066H173.753L167.019 76.764C164.974 79.7107 163.093 82.4147 161.377 84.876C159.679 87.3373 158.049 89.712 156.489 92H150.353Z" fill="#373737"/>
<path d="M131.992 92C129.219 92 126.697 92 124.426 92C122.173 92 120.041 92 118.03 92C118.03 89.9893 118.03 88.0394 118.03 86.15C118.03 84.2607 118.03 82.1634 118.03 79.858V67.326C118.03 65.7487 118.03 64.284 118.03 62.932C118.03 61.5627 118.03 60.228 118.03 58.928C118.03 57.628 118.03 56.2933 118.03 54.924H143.276V61.242C141.439 61.242 139.48 61.242 137.4 61.242C135.337 61.242 132.885 61.242 130.042 61.242H121.098L125.206 56.042C125.206 58.0873 125.206 60.072 125.206 61.996C125.206 63.92 125.206 66.078 125.206 68.47V78.688C125.206 80.0227 125.206 81.3053 125.206 82.536C125.206 83.7667 125.206 84.9973 125.206 86.228H130.666C132.243 86.228 133.587 86.0547 134.696 85.708C135.805 85.344 136.655 84.7287 137.244 83.862C137.851 82.9953 138.154 81.808 138.154 80.3C138.154 79.1387 137.946 78.2113 137.53 77.518C137.131 76.8073 136.603 76.2787 135.944 75.932C135.285 75.568 134.592 75.3253 133.864 75.204C133.136 75.0827 132.46 75.022 131.836 75.022H124.296V69.432C125.336 69.432 126.515 69.432 127.832 69.432C129.149 69.432 130.64 69.432 132.304 69.432C135.251 69.432 137.703 69.8047 139.662 70.55C141.621 71.278 143.094 72.4653 144.082 74.112C145.07 75.7587 145.564 77.9687 145.564 80.742C145.564 82.9433 145.131 84.8933 144.264 86.592C143.397 88.2907 141.976 89.6167 140 90.57C138.024 91.5233 135.355 92 131.992 92Z" fill="#373737"/>
</svg>
